<svg width="194" height="70" viewBox="0 0 194 70" fill="none" xmlns="http://www.w3.org/2000/svg">
<rect width="194" height="70" fill="#0C0C0C"/>
<path d="M69.424 49.528C66.168 49.528 63.3373 48.8973 60.932 47.636C58.556 46.3747 56.7373 44.644 55.476 42.444C54.2147 40.2147 53.584 37.7213 53.584 34.964C53.584 32.2947 54.288 29.904 55.696 27.792C57.104 25.6507 59.0253 23.9933 61.46 22.82C63.8947 21.6173 66.608 21.016 69.6 21.016C70.9787 21.016 72.3867 21.148 73.824 21.412C75.2613 21.6467 76.3907 21.94 77.212 22.292C77.4467 22.4093 77.5933 22.5267 77.652 22.644C77.7107 22.7613 77.7547 22.9813 77.784 23.304L78.136 29.068C78.136 29.1853 78.0627 29.2587 77.916 29.288C77.7693 29.3173 77.6667 29.288 77.608 29.2C76.5813 26.9707 75.232 25.24 73.56 24.008C71.888 22.7467 69.952 22.116 67.752 22.116C64.9067 22.116 62.692 23.128 61.108 25.152C59.524 27.1467 58.732 29.8747 58.732 33.336C58.732 36.3573 59.26 39.0267 60.316 41.344C61.372 43.6613 62.8093 45.4507 64.628 46.712C66.476 47.9733 68.5587 48.604 70.876 48.604C71.932 48.604 72.7387 48.4573 73.296 48.164C73.8533 47.8413 74.2347 47.328 74.44 46.624C74.6747 45.8907 74.792 44.8347 74.792 43.456C74.792 42.0187 74.66 40.9773 74.396 40.332C74.132 39.6867 73.648 39.2613 72.944 39.056C72.24 38.8507 71.1107 38.748 69.556 38.748C69.38 38.748 69.292 38.6307 69.292 38.396C69.292 38.308 69.3067 38.2347 69.336 38.176C69.3947 38.088 69.4533 38.044 69.512 38.044C71.9467 38.1907 73.9707 38.264 75.584 38.264C77.1093 38.264 78.6933 38.22 80.336 38.132C80.4533 38.132 80.5267 38.2347 80.556 38.44C80.5853 38.6453 80.5413 38.748 80.424 38.748C79.9547 38.7187 79.6613 38.836 79.544 39.1C79.4267 39.364 79.368 39.9653 79.368 40.904V43.896C79.368 45.216 79.412 46.14 79.5 46.668C79.588 47.196 79.632 47.5627 79.632 47.768C79.632 47.944 79.6027 48.0613 79.544 48.12C79.5147 48.1787 79.412 48.2373 79.236 48.296C75.4813 49.1173 72.2107 49.528 69.424 49.528ZM90.4821 49.396C89.4261 49.396 88.6488 49.044 88.1501 48.34C87.6808 47.6067 87.4755 46.5213 87.5341 45.084L87.7101 35.932C87.7395 34.4947 87.3581 33.776 86.5661 33.776C85.9208 33.776 85.1141 34.3627 84.1461 35.536C84.1168 35.5653 84.0728 35.58 84.0141 35.58C83.9261 35.58 83.8381 35.536 83.7501 35.448C83.6328 35.3307 83.6035 35.228 83.6621 35.14C84.5421 33.908 85.3928 33.0133 86.2141 32.456C87.0648 31.8987 87.9301 31.62 88.8101 31.62C90.8048 31.62 91.8021 32.8813 91.8021 35.404L91.6261 45.084C91.5675 46.4627 91.9048 47.152 92.6381 47.152C92.9315 47.152 93.2248 47.0347 93.5181 46.8C93.8408 46.5653 94.2808 46.1693 94.8381 45.612C94.8968 45.5533 94.9555 45.524 95.0141 45.524C95.1315 45.524 95.2195 45.5827 95.2781 45.7C95.3661 45.788 95.3955 45.876 95.3661 45.964C94.4861 47.1667 93.6795 48.0467 92.9461 48.604C92.2128 49.132 91.3915 49.396 90.4821 49.396ZM89.2941 27.22C88.4435 27.22 87.7835 26.9853 87.3141 26.516C86.8448 26.0467 86.6101 25.3867 86.6101 24.536C86.6101 23.7733 86.8448 23.172 87.3141 22.732C87.8128 22.2627 88.4728 22.028 89.2941 22.028C90.1155 22.028 90.7461 22.248 91.1861 22.688C91.6261 23.128 91.8461 23.744 91.8461 24.536C91.8461 25.3867 91.6261 26.0467 91.1861 26.516C90.7461 26.9853 90.1155 27.22 89.2941 27.22ZM119.468 45.524C119.585 45.524 119.688 45.5827 119.776 45.7C119.864 45.788 119.878 45.876 119.82 45.964C118.94 47.1667 118.133 48.0467 117.4 48.604C116.666 49.132 115.845 49.396 114.936 49.396C113.88 49.396 113.117 49.044 112.648 48.34C112.178 47.6067 111.958 46.5213 111.988 45.084L112.076 38.088C112.076 35.3307 111.372 33.952 109.964 33.952C109.025 33.952 108.174 34.48 107.412 35.536C106.649 36.592 106.033 38.1613 105.564 40.244C105.124 42.2973 104.889 44.7467 104.86 47.592V48.472C104.86 48.736 104.64 48.9413 104.2 49.088C103.789 49.264 103.158 49.352 102.308 49.352C101.281 49.352 100.738 49.2347 100.68 49V47.988C100.738 47.1667 100.768 46.4187 100.768 45.744L100.856 35.932C100.856 34.4947 100.474 33.776 99.7118 33.776C99.0665 33.776 98.2598 34.3627 97.2918 35.536C97.2625 35.5653 97.2185 35.58 97.1598 35.58C97.0425 35.58 96.9398 35.536 96.8518 35.448C96.7638 35.3307 96.7491 35.228 96.8078 35.14C97.6878 33.908 98.5385 33.0133 99.3598 32.456C100.181 31.8987 101.046 31.62 101.956 31.62C102.982 31.62 103.716 31.9427 104.156 32.588C104.625 33.204 104.874 34.1427 104.904 35.404V39.452C105.52 36.9 106.429 34.9347 107.632 33.556C108.834 32.148 110.257 31.444 111.9 31.444C114.716 31.444 116.124 33.38 116.124 37.252L116.08 45.084C116.05 46.4627 116.388 47.152 117.092 47.152C117.414 47.152 117.737 47.02 118.06 46.756C118.412 46.492 118.822 46.1107 119.292 45.612L119.468 45.524ZM138.376 31.092C138.435 31.0333 138.508 31.004 138.596 31.004C138.684 31.004 138.758 31.0333 138.816 31.092C138.904 31.1213 138.948 31.1653 138.948 31.224L138.904 50.452C138.875 53.9133 138.024 56.5973 136.352 58.504C134.71 60.4107 132.422 61.364 129.488 61.364C127.582 61.364 126.027 60.9973 124.824 60.264C123.651 59.56 123.064 58.636 123.064 57.492C123.064 56.9347 123.255 56.5093 123.636 56.216C124.047 55.9227 124.531 55.776 125.088 55.776C125.763 55.776 126.262 55.952 126.584 56.304C126.936 56.656 127.288 57.2133 127.64 57.976C128.022 58.7973 128.418 59.4133 128.828 59.824C129.239 60.264 129.884 60.484 130.764 60.484C131.967 60.484 132.906 59.8387 133.58 58.548C134.284 57.2867 134.651 54.9253 134.68 51.464V42.092C133.888 44.4387 132.774 46.272 131.336 47.592C129.899 48.912 128.374 49.572 126.76 49.572C125.558 49.572 124.575 49.176 123.812 48.384C123.079 47.5627 122.712 46.316 122.712 44.644C122.712 42.708 123.24 40.7133 124.296 38.66C125.352 36.5773 126.702 34.8613 128.344 33.512C130.016 32.1333 131.718 31.444 133.448 31.444C134.064 31.444 134.695 31.5467 135.34 31.752C136.015 31.928 136.616 32.2067 137.144 32.588C137.702 32.148 138.112 31.6493 138.376 31.092ZM129.268 46.36C130.236 46.36 131.131 45.8907 131.952 44.952C132.803 44.0133 133.463 42.8693 133.932 41.52C134.431 40.1413 134.68 38.88 134.68 37.736C134.68 36.4453 134.372 35.4333 133.756 34.7C133.17 33.9667 132.363 33.6 131.336 33.6C129.84 33.6 128.667 34.3333 127.816 35.8C126.966 37.2373 126.54 39.1147 126.54 41.432C126.57 43.1627 126.834 44.424 127.332 45.216C127.831 45.9787 128.476 46.36 129.268 46.36Z" fill="white"/>
</svg>
